<?xml version="1.0" standalone="no"?>
<!DOCTYPE svg PUBLIC "-//W3C//DTD SVG 20010904//EN"
 "http://www.w3.org/TR/2001/REC-SVG-20010904/DTD/svg10.dtd">
<svg version="1.0" xmlns="http://www.w3.org/2000/svg"
 width="512.000000pt" height="512.000000pt" viewBox="0 0 512.000000 512.000000"
 preserveAspectRatio="xMidYMid meet">

<g transform="translate(0.000000,512.000000) scale(0.100000,-0.100000)"
fill="#000000" stroke="none">
<path d="M0 2560 l0 -2560 2560 0 2560 0 0 2560 0 2560 -2560 0 -2560 0 0
-2560z m2955 1740 c422 -39 624 -210 712 -600 15 -68 17 -212 22 -1478 l6
-1402 -290 0 c-159 0 -320 -3 -357 -6 l-67 -7 -3 789 -3 789 -25 50 c-20 40
-35 55 -75 75 -49 25 -53 25 -305 25 -252 0 -256 0 -304 -25 -57 -29 -84 -60
-96 -116 -13 -56 -12 -800 1 -847 16 -60 63 -105 128 -124 44 -13 100 -17 263
-17 115 -1 208 -2 208 -4 0 -2 -125 -136 -278 -298 l-277 -294 -55 6 c-161 17
-264 45 -371 101 -188 97 -302 285 -343 564 -12 83 -16 193 -16 490 1 399 6
476 41 619 76 306 257 468 587 528 83 14 154 17 500 14 l403 -2 -3 222 c-3
248 -8 269 -76 315 -58 39 -113 43 -562 43 l-430 0 0 300 0 300 478 0 c262 0
527 -5 587 -10z"/>
</g>
</svg>
