<?xml version="1.0" standalone="no"?>
<!DOCTYPE svg PUBLIC "-//W3C//DTD SVG 20010904//EN"
 "http://www.w3.org/TR/2001/REC-SVG-20010904/DTD/svg10.dtd">
<svg version="1.0" xmlns="http://www.w3.org/2000/svg"
 width="1024.000000pt" height="1024.000000pt" viewBox="0 0 1024.000000 1024.000000"
 preserveAspectRatio="xMidYMid meet">

<g transform="translate(0.000000,1024.000000) scale(0.100000,-0.100000)"
fill="#000000" stroke="none">
<path d="M4770 9889 c-987 -63 -1938 -413 -2735 -1008 -265 -197 -619 -532
-817 -771 -452 -548 -761 -1136 -938 -1789 -371 -1369 -85 -2846 772 -3983
469 -623 1042 -1100 1748 -1456 565 -285 1135 -449 1820 -524 157 -17 815 -17
980 0 508 53 959 161 1415 339 181 71 564 260 730 360 366 222 670 459 961
748 1265 1261 1709 3064 1167 4740 -314 972 -972 1846 -1843 2449 -943 653
-2093 968 -3260 895z m810 -383 c1481 -195 2689 -1183 3119 -2551 111 -355
156 -655 156 -1050 0 -263 -8 -364 -46 -590 -189 -1124 -933 -2112 -1982
-2632 -397 -197 -764 -310 -1223 -375 -140 -20 -199 -22 -504 -22 -376 0 -449
6 -755 65 -510 100 -1006 310 -1450 616 -303 208 -609 506 -844 820 -270 360
-463 753 -581 1182 -213 775 -159 1573 159 2330 44 105 177 360 244 468 154
247 300 428 536 664 314 313 582 504 986 704 394 195 768 309 1196 364 218 29
221 29 559 26 210 -2 344 -8 430 -19z"/>
<path d="M4785 9350 c-1193 -107 -2219 -770 -2738 -1770 -496 -954 -448 -2090
126 -2997 403 -635 1018 -1115 1755 -1367 380 -130 731 -187 1152 -187 540 0
999 99 1488 319 228 103 502 273 705 435 125 100 344 312 442 427 482 569 745
1268 745 1985 0 491 -137 1019 -374 1446 -521 935 -1453 1550 -2571 1695 -138
18 -592 27 -730 14z m575 -255 c740 -78 1403 -457 1824 -1043 216 -300 353
-638 413 -1017 24 -155 24 -499 -1 -650 -85 -526 -309 -960 -688 -1333 -206
-203 -393 -335 -663 -467 -379 -187 -736 -269 -1175 -269 -294 0 -503 30 -770
109 -890 263 -1574 997 -1734 1860 -41 219 -49 505 -21 720 96 730 536 1370
1210 1760 315 182 712 305 1090 338 108 10 395 5 515 -8z"/>
<path d="M4895 8949 c-769 -73 -1450 -612 -1703 -1349 -368 -1074 199 -2233
1267 -2590 356 -119 758 -133 1122 -41 772 195 1345 816 1495 1618 25 135 30
468 10 616 -50 355 -189 689 -405 972 -64 84 -242 266 -330 337 -411 331 -929
486 -1456 437z m355 -249 c94 -23 258 -98 335 -154 81 -59 193 -176 250 -261
327 -490 196 -1157 -288 -1473 -267 -174 -597 -205 -890 -82 -231 97 -432 297
-533 530 -75 172 -106 380 -85 552 61 476 400 835 859 908 83 13 254 3 352
-20z"/>
</g>
</svg>
