<?xml version="1.0" standalone="no"?>
<!DOCTYPE svg PUBLIC "-//W3C//DTD SVG 20010904//EN"
 "http://www.w3.org/TR/2001/REC-SVG-20010904/DTD/svg10.dtd">
<svg version="1.0" xmlns="http://www.w3.org/2000/svg"
 width="1200.000000pt" height="1200.000000pt" viewBox="0 0 1200.000000 1200.000000"
 preserveAspectRatio="xMidYMid meet">

<g transform="translate(0.000000,1200.000000) scale(0.100000,-0.100000)"
fill="#000000" stroke="none">
<path d="M5715 11993 c-755 -44 -1372 -194 -1873 -453 -471 -244 -757 -553
-826 -892 -14 -66 -16 -172 -16 -713 l0 -635 1500 0 1500 0 0 -150 0 -150
-2285 0 c-2501 0 -2351 3 -2505 -57 -492 -193 -906 -877 -1099 -1813 -77 -376
-105 -675 -105 -1130 0 -370 11 -540 55 -845 153 -1058 605 -1884 1149 -2098
141 -55 164 -57 855 -57 l635 0 0 143 c0 331 26 791 61 1082 146 1215 574
1723 1573 1865 326 46 674 60 1556 60 1272 0 1719 35 2102 160 589 193 851
628 957 1585 42 372 46 524 46 1650 l0 1080 -23 80 c-59 204 -192 392 -397
564 -549 458 -1549 738 -2605 729 -113 -1 -227 -3 -255 -5z m-1220 -958 c182
-48 342 -208 390 -390 19 -76 19 -214 0 -290 -48 -182 -208 -342 -390 -390
-33 -8 -97 -15 -143 -15 -159 0 -283 51 -392 160 -110 110 -160 232 -160 390
0 158 50 280 160 390 110 110 226 158 385 159 52 1 116 -6 150 -14z"/>
<path d="M9296 8708 c-18 -793 -85 -1299 -222 -1690 -230 -650 -651 -975
-1423 -1093 -367 -56 -563 -65 -1731 -75 -564 -4 -1092 -13 -1175 -19 -655
-48 -977 -153 -1226 -401 -322 -320 -469 -882 -509 -1935 -7 -175 -10 -656 -8
-1210 l3 -920 23 -75 c51 -166 143 -311 286 -456 863 -864 3099 -1104 4589
-493 578 238 953 570 1068 949 23 74 23 80 27 743 l3 667 -1501 0 -1500 0 0
150 0 150 2285 0 c2501 0 2351 -3 2505 57 545 214 997 1042 1149 2103 45 315
55 460 55 840 0 380 -10 525 -55 840 -150 1050 -598 1879 -1133 2096 -157 63
-168 64 -869 64 l-634 0 -7 -292z m-1501 -6673 c182 -48 342 -208 390 -390 19
-76 19 -214 0 -290 -48 -182 -208 -342 -390 -390 -33 -8 -97 -15 -143 -15
-159 0 -283 51 -392 160 -110 110 -160 232 -160 390 0 158 50 280 160 390 110
110 226 158 385 159 52 1 116 -6 150 -14z"/>
</g>
</svg>
