<?xml version="1.0" standalone="no"?>
<!DOCTYPE svg PUBLIC "-//W3C//DTD SVG 20010904//EN"
 "http://www.w3.org/TR/2001/REC-SVG-20010904/DTD/svg10.dtd">
<svg version="1.0" xmlns="http://www.w3.org/2000/svg"
 width="1280.000000pt" height="856.000000pt" viewBox="0 0 1280.000000 856.000000"
 preserveAspectRatio="xMidYMid meet">

<g transform="translate(0.000000,856.000000) scale(0.100000,-0.100000)"
fill="#000000" stroke="none">
<path d="M4370 8359 c-756 -46 -1276 -220 -1923 -647 -481 -317 -939 -778
-1287 -1297 -248 -370 -472 -820 -620 -1250 -394 -1142 -386 -2385 22 -3344
300 -708 813 -1245 1416 -1485 549 -219 1166 -206 1742 36 450 189 866 542
1153 978 144 219 287 546 357 817 198 760 62 1586 -355 2168 -358 499 -886
805 -1545 896 -125 18 -515 18 -640 0 -389 -53 -755 -187 -1110 -405 -58 -35
-106 -63 -108 -61 -7 7 83 329 138 495 294 889 781 1622 1421 2139 534 432
1154 691 1812 756 l67 7 0 104 0 104 -202 -1 c-112 -1 -264 -6 -338 -10z
m-1388 -3703 c527 -100 862 -458 1109 -1186 211 -620 256 -1350 114 -1846
-159 -554 -493 -897 -975 -1000 -41 -8 -138 -18 -215 -21 -237 -9 -429 33
-640 137 -583 289 -961 1017 -1065 2050 -41 407 -29 1008 27 1364 20 128 -7
103 256 237 388 197 665 280 977 292 111 4 321 -10 412 -27z"/>
<path d="M9530 6193 c-933 -40 -1562 -208 -2141 -570 -488 -306 -851 -694
-1074 -1148 -92 -187 -136 -307 -185 -499 -58 -231 -75 -371 -75 -646 0 -256
10 -365 55 -590 126 -629 430 -1202 896 -1689 576 -601 1220 -871 2079 -871
874 0 1614 294 2157 859 574 596 830 1415 654 2092 -112 429 -346 809 -741
1205 -275 275 -584 513 -990 760 l-130 79 1283 3 1282 2 0 510 0 510 -1502 -2
c-827 -1 -1532 -3 -1568 -5z m117 -1195 c449 -482 674 -779 827 -1091 174
-355 229 -635 229 -1162 0 -328 -14 -479 -68 -720 -63 -283 -192 -589 -332
-783 -126 -176 -316 -343 -488 -430 -476 -239 -1083 -144 -1569 244 -592 474
-966 1346 -966 2254 0 904 479 1584 1264 1795 207 55 359 71 702 74 l231 1
170 -182z"/>
</g>
</svg>
