<?xml version="1.0" standalone="no"?>
<!DOCTYPE svg PUBLIC "-//W3C//DTD SVG 20010904//EN"
 "http://www.w3.org/TR/2001/REC-SVG-20010904/DTD/svg10.dtd">
<svg version="1.0" xmlns="http://www.w3.org/2000/svg"
 width="400.000000pt" height="400.000000pt" viewBox="0 0 400.000000 400.000000"
 preserveAspectRatio="xMidYMid meet">

<g transform="translate(0.000000,400.000000) scale(0.100000,-0.100000)"
fill="#000000" stroke="none">
<path d="M0 2000 l0 -2000 2000 0 2000 0 0 2000 0 2000 -2000 0 -2000 0 0
-2000z m3237 1235 c49 -21 110 -88 124 -137 29 -109 -15 -221 -106 -267 -42
-22 -63 -26 -135 -26 -74 0 -91 3 -131 27 -25 15 -59 46 -75 69 -26 38 -29 50
-29 123 0 93 16 129 77 179 68 55 187 68 275 32z m-2134 -877 c4 -724 5 -756
25 -828 47 -171 120 -273 235 -326 58 -27 70 -29 187 -29 107 0 133 4 182 23
84 34 161 108 203 196 71 147 68 117 72 959 l4 757 194 0 195 0 0 -722 c0
-573 -3 -744 -15 -823 -54 -377 -226 -612 -519 -710 -193 -64 -482 -56 -676
18 -220 84 -379 271 -445 527 -47 178 -47 189 -52 968 l-4 742 205 0 205 0 4
-752z m2217 -698 l0 -850 -200 0 -200 0 0 850 0 850 200 0 200 0 0 -850z"/>
</g>
</svg>
